<?xml version="1.0" encoding="UTF-8" standalone="no"?>
<svg viewBox="0 0 84 84" version="1.1" xmlns="http://www.w3.org/2000/svg" xmlns:xlink="http://www.w3.org/1999/xlink">
    <g id="Page-1" stroke="none" stroke-width="1" fill="none" fill-rule="evenodd">
        <g id="Group" transform="translate(2.000000, 2.000000)">
            <path d="M40.477997,26.0440061 L40.477997,23 L31.552352,28.0561457 L40.4264036,33.2670713 L40.477997,30.1198786 C46.7723824,30.1198786 51.8801214,35.2276176 51.8801214,41.522003 C51.8285281,47.8163885 46.7207891,52.9241275 40.477997,52.9241275 C34.1836115,52.9241275 29.0758725,47.8163885 29.0758725,41.522003 L25,41.522003 C25,50.0349014 31.9135053,57 40.477997,57 C48.9908953,57 55.9559939,50.0864947 55.9559939,41.522003 C55.9044006,33.0091047 48.9908953,26.0955994 40.477997,26.0440061 Z" id="repeat" stroke="#000000" stroke-width="3" fill="#000000" fill-rule="nonzero"></path>
            <circle id="circle" stroke="#000000" stroke-width="4" cx="40" cy="40" r="40"></circle>
            <polygon id="play" fill="#000000" fill-rule="nonzero" points="27 20.36215 27 60.3622 61 40.3621"></polygon>
            <g id="pause" transform="translate(28.000000, 20.000000)" fill="#000000">
                <rect id="line-2" x="0" y="0" width="8" height="40"></rect>
                <rect id="line-1" x="16" y="0" width="8" height="40"></rect>
            </g>
        </g>
    </g>
</svg>
